<?xml version="1.0" standalone="no"?>
<!DOCTYPE svg PUBLIC "-//W3C//DTD SVG 20010904//EN"
 "http://www.w3.org/TR/2001/REC-SVG-20010904/DTD/svg10.dtd">
<svg version="1.0" xmlns="http://www.w3.org/2000/svg"
 width="500.000000pt" height="500.000000pt" viewBox="0 0 500.000000 500.000000"
 preserveAspectRatio="xMidYMid meet">

<g transform="translate(0.000000,500.000000) scale(0.100000,-0.100000)"
fill="#000000" stroke="none">
<path d="M3327 2796 c-187 -67 -470 -380 -608 -672 l-33 -69 -8 115 c-13 193
-27 342 -33 348 -13 14 -15 -14 -5 -114 5 -60 10 -156 10 -214 0 -136 7 -180
30 -180 12 0 29 27 56 87 81 182 303 474 445 587 127 100 249 135 296 84 30
-34 36 -63 23 -119 -15 -61 -6 -76 15 -26 30 71 14 147 -36 173 -35 17 -102
17 -152 0z"/>
<path d="M1385 2631 c-157 -44 -330 -148 -468 -280 -92 -88 -111 -145 -60
-178 40 -26 278 -23 383 5 86 23 56 29 -35 7 -33 -8 -103 -17 -155 -20 -196
-13 -240 37 -135 153 133 148 444 319 566 310 40 -3 44 -6 47 -30 2 -15 -6
-48 -17 -74 -23 -51 -25 -64 -12 -64 14 0 61 101 61 131 0 58 -64 72 -175 40z"/>
<path d="M2423 2528 c-27 -13 -73 -101 -73 -140 0 -22 -14 -42 -61 -86 -52
-48 -89 -97 -89 -116 0 -12 33 -36 49 -36 10 0 39 14 66 32 l48 32 19 -27 c38
-52 117 -45 159 14 24 34 34 124 14 124 -5 0 -9 -4 -7 -9 8 -23 -12 -89 -35
-116 -31 -38 -66 -39 -98 -4 -14 15 -25 30 -25 35 0 4 34 36 76 70 92 77 82
91 -13 19 l-68 -52 -3 39 c-3 33 1 41 30 63 60 45 108 97 108 118 0 23 -35 52
-60 51 -8 0 -25 -5 -37 -11z m56 -22 c9 -10 9 -20 2 -34 -13 -24 -91 -95 -98
-89 -8 9 17 84 38 111 23 29 41 33 58 12z m-131 -242 c-2 -19 -16 -38 -46 -61
-52 -40 -62 -41 -62 -8 0 32 85 124 101 108 6 -6 9 -23 7 -39z"/>
<path d="M3704 2446 c-14 -29 -24 -36 -48 -37 -31 -2 -31 -2 -3 -6 15 -2 27
-6 27 -7 0 -2 -11 -28 -24 -58 -39 -87 -38 -118 3 -118 27 0 87 37 77 47 -3 3
-17 -4 -32 -16 -59 -46 -68 -21 -27 81 25 66 27 68 62 70 36 1 36 1 4 5 -30 4
-31 5 -21 34 15 44 2 48 -18 5z"/>
<path d="M3181 2366 c-24 -57 -41 -113 -39 -123 5 -28 42 -27 74 3 l29 26 -27
-16 c-31 -18 -58 -21 -58 -6 0 5 18 55 40 110 44 110 44 110 32 110 -5 0 -28
-47 -51 -104z"/>
<path d="M1707 2344 c-4 -4 -7 -14 -7 -23 0 -11 3 -12 11 -4 6 6 10 16 7 23
-2 6 -7 8 -11 4z"/>
<path d="M3827 2343 c-4 -3 -7 -13 -7 -22 1 -13 3 -13 11 2 11 19 8 33 -4 20z"/>
<path d="M1545 2310 c-4 -6 -5 -22 -3 -35 2 -18 -5 -32 -27 -49 -24 -19 -27
-27 -18 -37 9 -9 21 -9 45 -3 25 7 34 17 38 38 3 15 16 34 30 42 l25 15 -25
-7 c-42 -11 -44 -10 -48 15 -3 18 0 22 12 18 9 -4 16 -2 16 3 0 13 -37 13 -45
0z m13 -92 c-3 -7 -15 -14 -29 -16 -23 -2 -23 -2 -5 13 24 18 39 20 34 3z"/>
<path d="M1800 2278 c-11 -18 -20 -39 -20 -46 0 -14 7 -11 54 21 l28 20 -11
-21 c-16 -31 2 -29 45 5 l35 26 -6 -26 c-6 -23 -4 -27 13 -27 21 0 75 39 55
40 -6 0 -15 -4 -18 -10 -13 -21 -32 -10 -27 15 5 29 -4 31 -36 9 -15 -10 -22
-11 -22 -3 0 11 -15 9 -54 -6 -15 -7 -17 -5 -11 13 10 32 -2 27 -25 -10z"/>
<path d="M2970 2280 c-36 -33 -35 -57 1 -52 13 2 39 3 58 2 33 0 61 14 61 32
0 5 -10 2 -22 -6 -30 -21 -41 -20 -33 4 8 26 -5 25 -39 -1 -14 -11 -26 -16
-26 -11 0 14 35 42 53 42 9 0 17 5 17 10 0 20 -39 9 -70 -20z"/>
<path d="M4110 2280 c-36 -33 -35 -57 1 -52 13 2 39 3 58 2 33 0 61 14 61 32
0 5 -10 2 -22 -6 -30 -21 -41 -20 -33 4 8 26 -5 25 -39 -1 -14 -11 -26 -16
-26 -11 0 14 35 42 53 42 9 0 17 5 17 10 0 20 -39 9 -70 -20z"/>
<path d="M1387 2282 c-23 -25 -21 -49 3 -57 35 -11 84 31 73 63 -7 18 -58 14
-76 -6z m56 1 c9 -9 -22 -43 -40 -43 -17 0 -17 10 4 32 17 19 26 22 36 11z"/>
<path d="M2046 2278 c-21 -30 -20 -45 4 -53 35 -11 84 31 73 63 -8 21 -60 14
-77 -10z m57 5 c9 -9 -22 -43 -40 -43 -17 0 -17 10 4 32 17 19 26 22 36 11z"/>
<path d="M3292 2284 c-31 -21 -29 -52 4 -60 29 -7 94 18 94 37 0 7 -7 5 -19
-5 -22 -20 -72 -26 -78 -8 -3 7 5 12 20 12 13 0 30 6 36 13 23 28 -20 37 -57
11z m38 -4 c0 -5 -5 -10 -11 -10 -5 0 -7 5 -4 10 3 6 8 10 11 10 2 0 4 -4 4
-10z"/>
<path d="M3442 2270 c-35 -56 -28 -59 36 -14 21 16 22 15 22 -5 0 -27 30 -28
61 -1 l24 21 -34 -16 -34 -17 7 27 c7 26 6 27 -23 22 -19 -4 -31 -2 -34 6 -2
7 -14 -4 -25 -23z"/>
<path d="M3912 2270 c-12 -19 -22 -39 -22 -43 0 -10 33 8 50 27 17 22 30 20
30 -4 0 -26 31 -26 61 0 l24 21 -34 -16 -34 -17 7 27 c7 26 6 27 -23 22 -19
-4 -31 -2 -34 6 -2 7 -14 -4 -25 -23z"/>
<path d="M1670 2271 c-28 -53 9 -69 57 -25 l28 25 -33 -16 c-39 -19 -48 -15
-32 14 7 13 7 21 1 21 -6 0 -15 -9 -21 -19z"/>
<path d="M3790 2271 c-28 -53 9 -69 57 -25 l28 26 -32 -18 c-37 -21 -50 -15
-33 15 7 13 7 21 1 21 -6 0 -15 -9 -21 -19z"/>
</g>
</svg>
