<?xml version="1.0" standalone="no"?>
<!DOCTYPE svg PUBLIC "-//W3C//DTD SVG 20010904//EN"
 "http://www.w3.org/TR/2001/REC-SVG-20010904/DTD/svg10.dtd">
<svg version="1.0" xmlns="http://www.w3.org/2000/svg"
 width="1080.000000pt" height="1080.000000pt" viewBox="0 0 1080.000000 1080.000000"
 preserveAspectRatio="xMidYMid meet">

<g transform="translate(0.000000,1080.000000) scale(0.100000,-0.100000)"
fill="#000000" stroke="none">
<path d="M3412 8348 l3 -52 79 -12 c43 -7 102 -20 130 -29 144 -46 265 -164
266 -257 1 -24 4 -61 9 -84 l8 -40 -73 76 c-71 74 -136 121 -150 108 -8 -9 32
-75 98 -163 37 -48 70 -79 107 -100 53 -30 54 -31 77 -110 33 -113 54 -227 54
-296 0 -84 -33 -241 -76 -360 -20 -57 -58 -166 -83 -241 -42 -125 -61 -163
-61 -123 0 24 -64 145 -100 190 -46 58 -56 81 -75 170 -8 44 -25 106 -36 138
-16 47 -18 66 -9 95 14 50 13 78 -5 115 -8 18 -28 70 -45 117 -43 118 -67 155
-154 238 -101 96 -116 94 -70 -5 58 -126 65 -144 91 -233 30 -103 45 -132 95
-190 22 -25 44 -54 50 -65 5 -11 -3 -4 -18 15 -47 59 -126 129 -172 151 -24
12 -44 20 -46 18 -2 -2 16 -44 40 -93 48 -101 118 -179 174 -197 53 -17 68
-36 81 -97 6 -31 14 -62 16 -69 3 -7 -10 1 -28 19 -41 38 -152 111 -241 157
-51 27 -70 44 -87 77 -47 88 -113 134 -193 134 -24 0 -60 5 -81 11 -22 6 -41
8 -44 5 -11 -10 19 -75 52 -114 41 -47 86 -66 208 -87 48 -8 98 -20 110 -27
21 -11 20 -12 -20 -19 -74 -13 -240 -100 -228 -119 9 -14 127 -31 169 -25 59
10 96 31 136 76 l35 39 65 -39 c85 -51 142 -101 180 -156 16 -25 44 -66 61
-91 38 -55 79 -178 79 -236 0 -22 -9 -95 -21 -162 -45 -262 -5 -544 111 -770
l40 -78 -15 -57 c-63 -246 -71 -604 -19 -878 90 -475 381 -910 759 -1135 472
-281 1158 -305 1625 -56 129 68 208 126 319 233 129 125 241 267 350 447 l22
37 -41 27 c-22 15 -42 25 -43 23 -2 -2 -39 -51 -83 -109 -104 -139 -317 -352
-419 -420 -180 -121 -393 -180 -644 -180 -461 1 -820 179 -1046 520 -171 257
-255 591 -255 1014 1 1028 426 1635 1166 1663 274 11 491 -46 694 -182 87 -59
220 -197 284 -295 64 -97 146 -268 192 -402 l36 -108 40 0 40 0 -6 73 c-3 39
-20 281 -36 537 -17 256 -33 489 -36 518 l-5 52 -43 0 -42 0 -17 -53 c-9 -29
-30 -74 -47 -100 -68 -108 -137 -113 -328 -23 -143 67 -228 98 -363 131 -504
123 -1082 -25 -1494 -382 -221 -192 -408 -478 -509 -779 l-32 -97 -37 81 c-30
65 -37 93 -37 141 0 69 39 205 71 245 12 15 57 45 100 67 44 22 97 55 118 74
40 37 120 175 101 175 -21 0 -115 -52 -160 -89 -87 -70 -86 -70 -51 -6 110
197 139 242 185 292 47 50 58 56 140 79 105 30 131 45 156 93 13 26 40 49 99
84 88 52 253 132 295 143 14 3 26 9 26 11 0 3 -76 182 -169 397 -145 335 -191
453 -226 572 -3 13 4 45 20 79 24 54 32 95 19 95 -3 0 -14 -5 -26 -11 -18 -10
-19 -8 -13 13 30 96 123 147 314 172 l86 11 0 50 0 50 -763 3 -763 2 3 -52z
m1148 -284 c0 -11 -25 -54 -31 -54 -6 0 -5 49 0 56 2 2 31 0 31 -2z m-814 -54
c9 12 154 -146 158 -172 1 -7 5 -19 9 -25 12 -19 -3 -16 -40 7 -30 18 -137
151 -165 204 l-11 21 23 -20 c12 -11 24 -18 26 -15z m185 -107 l-5 -38 -7 30
c-4 17 -7 46 -7 65 l0 35 12 -27 c7 -16 10 -45 7 -65z m26 -57 c-15 -47 -17
-44 -17 20 1 55 2 57 14 35 10 -19 11 -32 3 -55z m103 -180 c40 -93 73 -174
73 -181 0 -7 -20 -38 -44 -69 l-44 -57 -6 83 c-7 96 -11 111 -51 239 -24 73
-29 104 -24 133 4 21 11 35 15 30 4 -5 41 -85 81 -178z m-720 61 c12 4 106
-102 135 -152 24 -40 80 -182 92 -232 3 -13 2 -40 -2 -60 l-7 -38 -25 50 c-15
28 -50 115 -80 195 -51 136 -99 237 -109 227 -3 -2 5 -20 16 -40 12 -20 45
-100 74 -179 30 -79 57 -152 61 -162 6 -14 5 -17 -3 -12 -20 12 -48 76 -72
161 -12 44 -45 125 -72 180 -27 55 -42 91 -33 80 9 -11 20 -19 25 -18z m945
-579 l137 -316 -75 -71 c-45 -43 -106 -118 -155 -191 -45 -66 -82 -117 -82
-113 0 4 7 49 16 98 12 71 24 104 56 158 90 150 109 240 70 327 l-20 45 -21
-48 c-30 -69 -57 -181 -80 -339 -12 -75 -21 -142 -21 -148 0 -6 -4 -9 -9 -6
-4 3 -12 29 -15 58 -4 29 -15 71 -25 93 -17 38 -76 103 -85 94 -2 -2 -1 -31 4
-64 4 -33 8 -49 9 -35 2 20 7 14 23 -28 12 -29 23 -51 25 -48 2 2 -7 32 -21
67 -34 81 -34 100 -1 69 30 -28 41 -61 55 -163 12 -95 12 -87 0 -87 -6 0 -27
33 -46 73 -21 41 -33 59 -30 42 3 -16 24 -65 46 -108 22 -43 40 -85 40 -93 0
-9 -35 -79 -78 -157 -97 -175 -114 -217 -144 -339 -12 -54 -26 -98 -29 -98
-20 0 -59 252 -59 382 0 223 47 444 158 740 62 166 112 328 112 365 0 14 99
167 105 161 1 -2 64 -145 140 -320z m-856 177 c31 -29 72 -75 91 -101 26 -37
10 -25 -64 51 -106 108 -110 103 -8 -10 35 -38 73 -82 83 -97 19 -26 19 -28 2
-28 -47 0 -128 85 -167 175 -31 68 -30 62 -10 62 9 0 42 -24 73 -52z m-324 9
c40 -5 94 -51 122 -102 l23 -40 -63 24 c-91 35 -159 71 -198 104 l-34 29 60
-5 c33 -3 74 -7 90 -10z m-15 -87 c30 -13 74 -32 98 -42 23 -10 40 -20 38 -22
-9 -9 -169 38 -196 57 -28 20 -70 71 -70 85 0 3 17 -8 38 -24 20 -17 62 -41
92 -54z m203 -177 c-48 -27 -89 -42 -127 -46 -31 -4 -56 -4 -56 0 0 10 104 55
164 71 88 24 93 16 19 -25z m77 14 c0 -54 -122 -103 -220 -87 l-45 7 59 8 c37
5 81 20 120 42 58 33 86 43 86 30z m883 -129 c0 -39 -56 -199 -73 -210 -4 -3
3 26 16 64 13 38 27 104 31 146 5 59 8 73 16 59 6 -10 10 -36 10 -59z m-37 -7
c-7 -59 -45 -193 -53 -185 -3 3 18 109 44 225 10 44 15 21 9 -40z m222 -186
c-7 -8 -45 -36 -85 -63 -39 -27 -74 -53 -77 -58 -8 -12 122 75 150 100 25 23
34 24 34 4 0 -8 7 -15 16 -15 14 0 14 -3 3 -16 -23 -28 -139 -75 -222 -91 -27
-5 20 54 102 127 59 53 67 58 78 43 10 -13 10 -20 1 -31z m-240 -474 c-13 -23
-42 -60 -64 -82 -50 -49 -209 -144 -194 -116 6 10 15 22 20 25 6 4 8 10 5 14
-12 21 205 199 226 186 4 -3 10 -1 14 5 3 5 8 10 11 10 2 0 -6 -19 -18 -42z"/>
<path d="M3759 7985 c11 -16 48 -59 82 -95 33 -36 47 -47 30 -25 -41 55 -138
157 -112 120z"/>
<path d="M4041 6590 c0 -8 4 -24 9 -35 5 -13 9 -14 9 -5 0 8 -4 24 -9 35 -5
13 -9 14 -9 5z"/>
<path d="M4154 6279 c-16 -17 -64 -55 -106 -85 -43 -30 -78 -57 -78 -60 0 -15
197 136 213 163 13 21 3 15 -29 -18z"/>
<path d="M6212 8348 l3 -52 65 -13 c166 -33 268 -92 310 -179 50 -101 17 -208
-280 -934 -39 -96 -74 -181 -77 -187 -3 -7 7 -17 23 -23 16 -6 64 -27 107 -47
42 -20 79 -34 81 -32 2 2 93 220 201 484 206 503 245 587 327 697 87 118 202
194 331 219 l57 12 0 53 0 54 -576 0 -575 0 3 -52z"/>
<path d="M5805 5930 c-110 -269 -202 -490 -205 -490 -3 0 -96 207 -205 461
-110 253 -202 462 -206 464 -3 2 -35 -16 -71 -40 -89 -60 -194 -177 -257 -287
l-52 -92 16 -40 c8 -23 141 -329 293 -681 l278 -640 55 -3 54 -2 230 565 c127
310 233 565 237 565 3 0 9 -14 13 -31 9 -40 65 -94 147 -142 36 -21 78 -51 93
-67 l28 -30 -34 10 c-67 19 -269 5 -269 -19 0 -15 100 -72 151 -85 61 -16 101
-11 157 18 28 14 36 15 49 4 23 -19 105 -146 124 -193 46 -110 62 -291 35
-390 -7 -27 -40 -93 -73 -145 -82 -129 -115 -198 -152 -312 -59 -185 -77 -394
-48 -548 12 -63 13 -60 9 71 l-5 136 33 61 c32 60 117 156 173 197 15 11 33
25 40 31 7 6 18 9 26 6 8 -3 11 0 8 6 -8 12 68 46 149 67 105 27 138 15 79
-29 -46 -36 -102 -54 -210 -71 l-90 -15 85 5 c47 2 106 11 133 19 49 15 183
115 170 127 -14 12 -147 -8 -222 -34 -39 -13 -68 -21 -64 -17 72 64 274 214
315 233 79 37 101 41 186 27 117 -18 147 -7 219 81 32 38 60 74 61 79 6 17
-80 11 -156 -10 -104 -29 -181 -66 -302 -146 -58 -38 -111 -73 -118 -77 -13
-8 69 123 97 157 9 10 48 43 88 73 75 56 150 141 158 177 11 58 12 116 1 116
-30 0 -143 -147 -239 -310 -31 -52 -63 -104 -72 -115 -16 -20 -16 -19 -11 5
23 101 28 148 18 176 -10 27 -11 25 -12 -26 0 -30 -9 -84 -20 -120 l-19 -65 6
130 c3 72 8 132 10 135 2 2 8 -2 13 -10 6 -8 10 -10 10 -4 0 19 -26 48 -34 36
-4 -6 -8 -76 -9 -156 -1 -80 -5 -141 -10 -137 -4 4 -11 41 -17 82 -9 71 -9 70
-6 -40 2 -63 -1 -124 -6 -135 -6 -12 -59 -59 -120 -106 -124 -96 -236 -210
-297 -301 -23 -34 -41 -57 -41 -53 0 46 38 219 65 300 84 253 214 448 505 759
62 66 134 152 161 192 40 59 64 82 127 122 82 53 199 166 247 239 15 23 33 43
39 44 6 0 52 2 101 2 125 2 180 23 261 98 86 81 85 93 -6 84 -135 -14 -258
-58 -328 -120 -28 -24 -34 -26 -28 -11 50 122 88 297 68 317 -5 5 -32 -37 -67
-104 -32 -62 -73 -142 -92 -178 -19 -37 -38 -93 -44 -130 -19 -118 -27 -137
-72 -173 -33 -26 -131 -87 -141 -87 -1 0 10 37 25 83 27 81 49 211 49 293 0
43 15 67 130 209 22 28 57 83 77 123 32 64 37 83 37 145 1 75 -8 127 -23 127
-15 0 -109 -145 -155 -239 -25 -51 -50 -117 -57 -147 -14 -61 -24 -68 -33 -24
-7 36 -68 166 -90 194 -12 15 -19 17 -28 8 -9 -9 -6 -36 12 -114 29 -128 44
-164 83 -205 l30 -32 -12 -116 c-29 -275 -92 -390 -371 -690 -41 -44 -95 -104
-120 -133 l-45 -53 -2 81 c-1 44 -9 106 -18 139 -19 73 -19 156 0 241 8 36 14
85 15 109 0 32 9 58 33 95 l32 51 0 170 c0 170 0 170 -33 253 -19 46 -44 95
-56 109 l-23 26 -6 -245 c-6 -229 -5 -250 13 -303 11 -32 20 -65 20 -74 -1 -9
-11 17 -24 56 -25 75 -71 156 -108 189 l-21 19 7 -104 c9 -127 33 -195 93
-263 35 -39 43 -56 39 -74 -4 -13 -9 -45 -13 -70 l-6 -46 -34 64 c-18 35 -69
109 -113 165 -63 80 -81 110 -86 144 -16 117 -42 156 -134 205 -39 20 -70 42
-70 48 0 6 45 121 100 255 l100 243 -23 19 c-19 16 -169 99 -179 99 -2 0 -94
-220 -203 -490z m1493 333 c-7 -93 -38 -176 -102 -271 -59 -87 -131 -167 -117
-130 5 14 7 35 4 46 -15 60 169 430 216 432 2 0 1 -35 -1 -77z m-308 -259 c23
-70 46 -121 50 -115 3 7 7 -2 7 -18 0 -25 -3 -29 -14 -19 -25 20 -53 85 -73
170 -20 83 -24 108 -16 108 2 0 23 -57 46 -126z m30 -12 c12 -34 20 -68 17
-75 -3 -9 -43 97 -64 173 -11 40 29 -43 47 -98z m-538 -91 c5 -127 -2 -355 -9
-347 -5 4 -8 113 -8 242 0 216 10 281 17 105z m66 -188 c4 -143 3 -154 -19
-197 -12 -25 -25 -43 -28 -40 -3 3 -6 119 -6 258 l0 253 24 -61 c21 -52 25
-83 29 -213z m822 170 c-20 -72 -78 -200 -128 -283 -41 -66 -24 -20 60 164 27
59 47 110 45 112 -2 2 -30 -54 -62 -126 -32 -72 -60 -128 -63 -125 -2 2 1 26
7 52 17 65 133 286 143 270 5 -7 8 -3 9 13 0 14 3 20 5 13 3 -7 -4 -47 -16
-90z m333 -75 c-21 -21 -63 -51 -93 -66 -47 -23 -70 -27 -160 -30 l-105 -3 24
21 c13 11 29 20 37 20 8 0 14 5 14 11 0 29 216 95 278 85 22 -3 30 -1 26 6 -5
7 -2 8 5 3 9 -5 2 -19 -26 -47z m-1636 -57 c78 -38 123 -103 123 -178 0 -22
-5 -19 -65 33 -62 55 -125 137 -125 162 0 16 -3 16 67 -17z m-62 -23 c4 -11
46 -62 94 -111 92 -97 92 -99 -11 -25 -62 45 -108 107 -108 146 0 20 18 13 25
-10z m385 -153 c18 -49 41 -116 51 -147 16 -53 16 -57 0 -49 -51 28 -91 128
-91 229 0 36 2 63 4 61 2 -2 18 -44 36 -94z m28 2 c17 -39 33 -90 37 -112 5
-33 2 -29 -18 25 -14 36 -34 89 -46 118 -12 29 -17 51 -12 48 5 -3 23 -39 39
-79z m-167 -154 c8 -8 8 -11 -2 -10 -8 1 -44 -2 -80 -6 -51 -6 -80 -4 -123 8
-31 9 -56 19 -56 22 0 11 250 -3 261 -14z m-206 -19 c38 -11 73 -14 145 -9
l95 6 -35 -23 c-51 -34 -118 -31 -200 9 -74 36 -75 39 -5 17z m997 -433 c-5
-45 -62 -123 -133 -182 l-54 -44 52 58 c48 53 123 171 123 193 0 5 -16 -19
-35 -53 -19 -34 -56 -83 -81 -110 l-45 -48 42 65 c101 156 138 190 131 121z
m148 -256 c-36 -18 -103 -41 -148 -51 -45 -9 -80 -19 -78 -22 10 -9 155 28
211 55 33 15 64 29 69 32 6 2 -8 -18 -30 -44 -55 -68 -84 -78 -202 -68 -54 4
-104 7 -112 6 -31 -3 38 38 113 67 95 37 172 59 212 59 26 0 22 -4 -35 -34z"/>
<path d="M7251 6232 c-13 -31 -55 -115 -93 -186 -38 -71 -67 -133 -66 -138 2
-6 46 73 97 174 52 102 92 190 90 196 -2 6 -15 -15 -28 -46z"/>
<path d="M7361 5933 c-1 -6 -4 -20 -7 -30 -5 -17 -5 -17 6 0 6 10 9 23 6 30
-3 9 -5 9 -5 0z"/>
<path d="M6928 4633 c7 -3 16 -2 19 1 4 3 -2 6 -13 5 -11 0 -14 -3 -6 -6z"/>
<path d="M6650 4335 c-19 -7 -28 -14 -20 -14 8 0 29 6 45 14 39 17 21 18 -25
0z"/>
<path d="M6550 4310 c-20 -6 -21 -8 -5 -8 11 0 31 4 45 8 20 6 21 8 5 8 -11 0
-31 -4 -45 -8z"/>
<path d="M6498 4293 c7 -3 16 -2 19 1 4 3 -2 6 -13 5 -11 0 -14 -3 -6 -6z"/>
</g>
</svg>
